<?xml version="1.0" encoding="UTF-8" standalone="no"?>
<svg
   width="16"
   height="16"
   version="1.1"
   id="svg4"
   sodipodi:docname="window-maximize-symbolic.svg"
   inkscape:version="1.1.2 (0a00cf5339, 2022-02-04)"
   xmlns:inkscape="http://www.inkscape.org/namespaces/inkscape"
   xmlns:sodipodi="http://sodipodi.sourceforge.net/DTD/sodipodi-0.dtd"
   xmlns="http://www.w3.org/2000/svg"
   xmlns:svg="http://www.w3.org/2000/svg">
  <defs
     id="defs8" />
  <sodipodi:namedview
     id="namedview6"
     pagecolor="#ffffff"
     bordercolor="#666666"
     borderopacity="1.0"
     inkscape:pageshadow="2"
     inkscape:pageopacity="0.0"
     inkscape:pagecheckerboard="0"
     showgrid="false"
     inkscape:zoom="54.5625"
     inkscape:cx="8"
     inkscape:cy="7.9908362"
     inkscape:window-width="2560"
     inkscape:window-height="1370"
     inkscape:window-x="0"
     inkscape:window-y="0"
     inkscape:window-maximized="1"
     inkscape:current-layer="svg4" />
  <path
     style="fill:#444444;fill-opacity:0"
     d="M 4.9931946,4.005113 C 4.4391954,4.0060562 3.9939553,4.4528148 3.9948985,5.006814 l 0.010214,5.999991 c 9.433e-4,0.554 0.4477017,0.99924 1.0017033,0.998294 l 5.9999898,-0.01021 c 0.553999,-9.43e-4 0.999239,-0.447702 0.998296,-1.001701 L 11.994887,4.9931945 C 11.993944,4.4391953 11.547185,3.9939552 10.993186,3.9948984 Z m 1.5034027,1.9974434 2.9999957,-0.00511 c 0.2769995,-4.715e-4 0.5003789,0.2221485 0.5008516,0.499147 l 0.00511,2.9999953 C 10.003023,9.7735911 9.7804031,9.9969703 9.5034186,9.9974573 L 6.5034074,10.00255 C 6.2264077,10.003022 6.0030284,9.7804018 6.0025414,9.5034174 L 5.9974492,6.5034069 C 5.9969777,6.2264073 6.2195977,6.003028 6.4965973,6.0025564 Z"
     id="path2" />
  <path
     id="rect863"
     style="fill:#444444;fill-opacity:1;stroke-width:0.620102"
     d="m 7.675594,3.9879558 c -0.3773741,0 -0.6813821,0.3062152 -0.6813821,0.6855101 v 0.1364523 l 4.1138841,4.1780383 h 0.204735 c 0.377373,0 0.681381,-0.3062152 0.681381,-0.6855101 V 4.6734659 c 0,-0.3792949 -0.304008,-0.6855101 -0.681381,-0.6855101 z" />
  <path
     id="path1070"
     style="fill:#444444;fill-opacity:1;stroke-width:0.620102"
     d="m 8.3136422,11.997326 c 0.3773738,0 0.681382,-0.306216 0.681382,-0.68551 V 11.175363 L 4.8811398,6.997324 H 4.6764053 c -0.3773738,0 -0.6813811,0.3062155 -0.6813811,0.6855101 v 3.6289819 c 0,0.379294 0.3040073,0.68551 0.6813811,0.68551 z" />
</svg>
